<!DOCTYPE svg PUBLIC "-//W3C//DTD SVG 1.1//EN" "http://www.w3.org/Graphics/SVG/1.1/DTD/svg11.dtd">
<!-- Uploaded to: SVG Repo, www.svgrepo.com, Transformed by: SVG Repo Mixer Tools -->
<svg height="64px" width="64px" version="1.1" id="_x32_" xmlns="http://www.w3.org/2000/svg" xmlns:xlink="http://www.w3.org/1999/xlink" viewBox="0 0 512 512" xml:space="preserve" fill="#000000" stroke="#000000" stroke-width="0.00512">
<g id="SVGRepo_bgCarrier" stroke-width="0"/>
<g id="SVGRepo_tracerCarrier" stroke-linecap="round" stroke-linejoin="round"/>
<g id="SVGRepo_iconCarrier"> <style type="text/css"> .st0{fill:#000000;} </style> <g> <path class="st0" d="M491.874,156.349c-19.451-45.961-51.883-85.014-92.731-112.619C358.303,16.125,308.967-0.008,256.004,0 c-35.306,0-69.024,7.161-99.662,20.118C110.396,39.569,71.335,72.01,43.738,112.849C16.133,153.69-0.008,203.032,0,255.996 c-0.008,35.306,7.161,69.017,20.118,99.655c19.451,45.953,51.891,85.014,92.739,112.611C153.69,495.867,203.032,512,256.004,512 c35.298,0,69.017-7.169,99.647-20.126c45.952-19.452,85.006-51.883,112.611-92.731C495.867,358.302,512,308.968,512,255.996 C512,220.697,504.831,186.979,491.874,156.349z M298.654,344.575c-9.94,14.069-2.064,35.314-13.688,47.509 c-11.702,12.243-17.45,8.4-24.89,25.716c-0.928,2.175-13.64,30.749-17.268,21.682c3.295,8.177,0.254,15.886-9.305,15.878 c-9.488-0.016,1.723,7.915-7.487,10.17c-2.732,0.73-3.033,6.296-1.866,13.456c-6.979-0.984-13.87-2.286-20.634-3.897 c-9.258-29.114-14.386-63.523-14.45-72.598c-0.15-31.432-6.534-19.031-21.944-42.158c-10.456-15.735-19.49-32.694-19.046-51.883 c-0.111,3.454,20.174-48.604,5.51-38.688c-17.816,12.06-21.031-16.72-38.172-19.182c-8.75-1.254-6.201-10.837-16.07-9.273 c-8.876,1.405-19.102-7.757-25.882-12.663c-4.382-3.192-12.608-49.002-19.332-48.89c-9.511,0.055,7.352,31.956,3.882,32.726 c-4.184,0.841-10.639-15.522-15.108-29.614c1.676-4.922,3.525-9.781,5.542-14.537c17.085-40.411,45.667-74.82,81.632-99.114 c12.227-8.265,25.326-15.315,39.094-21.078c0.667-0.033,1.341-0.072,2.008-0.168c12.441-1.468,48.907-15.759,59.101-4.62 c4.287,4.557-55.131,26.12-56.862,35.37c-1.135,6.034,14.648,4.978,16.03,5.073c15.863,0.961-4.628,16.839,5.049,19.57 c14.569,3.906,29.066-62.078,40.237-28.502c4.566,13.632,24.064-10.305,25.446,6.478c1.421,17.507,17.419,21.905-12.433,26.66 c-27.43,4.414-5.438,15.57-23.397,24.961c-16.991,8.892-31.837,13.06-43.833,29.002c-13.434,17.88-14.577,17.316-19.88,39.213 c-2.866,11.869-17.189-8.09-11.615-15.664c-1.946,2.62-18.848-5.661-20.548-1.39c-3.302,8.281-12.203,3.803-19.22,8.781 c-8.884,6.272-17.491,26.509-8.575,36.028c7.098,7.638,31.344-16.37,32.67-8.185c1.016,6.304-8.614,10.734-7.558,16.998 c1.501,9.051,16.332-2.596,16.332,4.43c-0.008,4.526-6.002,29.352,7.074,24.636c7.058-2.541,8.996,2.866,13.449,1.739 c6.09-1.54,9.67-15.8,16.967-14.744c8.638,1.246,21.809,5.208,30.502,7.709c14.196,4.09,13.449,16.07,29.947,18.57 c16.855,2.557,10.202,17.674,8.13,26.12C246.414,313.516,326.76,304.934,298.654,344.575z M392.307,125.934 c0.007,0,14.942,0.167,18.109-0.325c3.168-0.493,3.065-7.948,3.034-9.536c-0.024-1.611-8.575-5.438-6.471-6.47 c2.111-1.032,7.391-2.549,8.955-3.589c0.731-0.484,2.564-2.08,4.541-3.85c6.526,6.962,12.616,14.346,18.229,22.102 c-1.032,0.651-2.096,1.43-2.866,2.208c-2.072,2.104-8.456-0.643-8.456-0.643c-2.779,2.969-5.55,5.962-8.344,8.956 c-1.374,3.184-2.74,6.383-4.121,9.574c0,0-9.519,4.724-13.782,5.224c-4.264,0.492-11.258-3.335-12.362-4.954 C387.71,143.011,392.314,125.917,392.307,125.934z M463.547,343.662c-1.342,3.176-2.779,6.304-4.264,9.401 c-1.492-4.7-2.969-8.876-4.27-11.139c-3.105-5.344-7.257-11.766-1.898-24.723c5.366-12.957-3.002-29.114-7.217-33.44 c-4.216-4.311-4.2-7.558,0.024-14.052c4.223-6.487-1.048-8.654-5.28-8.654c-4.24,0-7.424-7.582-12.735-6.502 c-5.304,1.072-25.589,6.494-33.123,5.406c-7.48-1.072-31.242-23.952-31.29-29.415c0-5.454,1.001-26.112,3.144-29.352 c2.16-3.247,13.918-18.046,18.157-24.493c4.24-6.454,10.592-15.021,15.926-16.054c5.359-1.032,29.765-5.081,37.101-7.129 c7.352-2.057,6.352,1.897,8.519,6.208c1.413,0.191,2.811,0.389,4.216,0.58c0.008,0,5.812,1.144,9.504,3.866 c0.754,0.556,1.564,1.088,2.39,1.62c12.083,27.613,18.784,58.092,18.792,90.207C481.235,287.142,474.932,316.724,463.547,343.662z"/> </g> </g>
</svg>