<!DOCTYPE svg PUBLIC "-//W3C//DTD SVG 1.1//EN" "http://www.w3.org/Graphics/SVG/1.1/DTD/svg11.dtd">
<!-- Uploaded to: SVG Repo, www.svgrepo.com, Transformed by: SVG Repo Mixer Tools -->
<svg fill="#000000" width="64px" height="64px" viewBox="0 0 24 24" xmlns="http://www.w3.org/2000/svg">
<g id="SVGRepo_bgCarrier" stroke-width="0"/>
<g id="SVGRepo_tracerCarrier" stroke-linecap="round" stroke-linejoin="round"/>
<g id="SVGRepo_iconCarrier">
<path d="M22,3a1,1,0,0,0-1-1H3A1,1,0,0,0,2,3V21a1,1,0,0,0,1,1H21a1,1,0,0,0,1-1ZM20,20H4V17.481L7.926,14.34l2.367,2.367a1,1,0,0,0,1.414,0l4.367-4.367L20,15.481Zm0-7.081-3.375-2.7a1,1,0,0,0-1.332.074L11,14.586,8.707,12.293a1,1,0,0,0-1.332-.074L4,14.919V4H20ZM6,8a2,2,0,1,1,2,2A2,2,0,0,1,6,8Z"/>
</g>
</svg>